<svg width="256" height="392" viewBox="0 0 256 392" fill="none" xmlns="http://www.w3.org/2000/svg">
<g filter="url(#filter0_d_5_35)">
<path d="M98.8906 324.06C71.8906 324.06 51.9922 317.596 39.1953 304.668C26.3984 291.6 20 271.787 20 245.229C20 240.592 21.7578 236.517 25.2734 233.004C28.9297 229.35 33.0781 227.523 37.7188 227.523C42.3594 227.523 46.4375 229.35 49.9531 233.004C53.6094 236.517 55.4375 240.592 55.4375 245.229C55.4375 262.232 58.5312 273.754 64.7188 279.796C70.9063 285.698 82.2969 288.649 98.8906 288.649H157.109C173.844 288.649 185.234 285.698 191.281 279.796C197.469 273.754 200.563 262.232 200.563 245.229C200.563 228.085 197.469 216.563 191.281 210.661C185.234 204.759 173.844 201.808 157.109 201.808H105.219C79.7656 201.808 60.7813 195.907 48.2656 184.103C35.8906 172.299 29.7031 153.751 29.7031 128.457C29.7031 102.883 35.8906 83.9832 48.2656 71.7581C60.6406 59.5329 79.4844 53.4204 104.797 53.4204H155.844C181.156 53.4204 200 59.5329 212.375 71.7581C224.75 83.9832 230.938 102.743 230.938 128.036C230.938 132.673 229.109 136.818 225.453 140.472C221.938 143.985 217.859 145.741 213.219 145.741C208.578 145.741 204.43 143.985 200.773 140.472C197.258 136.818 195.5 132.673 195.5 128.036C195.5 112.579 192.758 102.18 187.273 96.8407C181.93 91.501 171.453 88.8311 155.844 88.8311H104.797C89.1875 88.8311 78.6406 91.5713 73.1563 97.0515C67.8125 102.391 65.1406 112.86 65.1406 128.457C65.1406 143.774 67.8828 153.962 73.3672 159.02C78.8516 163.939 89.4688 166.398 105.219 166.398H157.109C183.688 166.398 203.445 172.932 216.383 186C229.461 198.928 236 218.671 236 245.229C236 271.787 229.461 291.6 216.383 304.668C203.445 317.596 183.688 324.06 157.109 324.06H98.8906ZM128 362C118.156 362 113.234 357.082 113.234 347.246V192.956L115.766 174.407V24.7545C115.766 14.9182 120.688 10 130.531 10C140.375 10 145.297 14.9182 145.297 24.7545V176.093L142.766 192.113V347.246C142.766 357.082 137.844 362 128 362Z" fill="url(#paint0_linear_5_35)"/>
</g>
<defs>
<filter id="filter0_d_5_35" x="0" y="0" width="256" height="392" filterUnits="userSpaceOnUse" color-interpolation-filters="sRGB">
<feFlood flood-opacity="0" result="BackgroundImageFix"/>
<feColorMatrix in="SourceAlpha" type="matrix" values="0 0 0 0 0 0 0 0 0 0 0 0 0 0 0 0 0 0 127 0" result="hardAlpha"/>
<feOffset dy="10"/>
<feGaussianBlur stdDeviation="10"/>
<feComposite in2="hardAlpha" operator="out"/>
<feColorMatrix type="matrix" values="0 0 0 0 0 0 0 0 0 0 0 0 0 0 0 0 0 0 0.28 0"/>
<feBlend mode="normal" in2="BackgroundImageFix" result="effect1_dropShadow_5_35"/>
<feBlend mode="normal" in="SourceGraphic" in2="effect1_dropShadow_5_35" result="shape"/>
</filter>
<linearGradient id="paint0_linear_5_35" x1="6.1801" y1="20.2326" x2="289.599" y2="362.12" gradientUnits="userSpaceOnUse">
<stop stop-color="#AEAEAE"/>
<stop offset="0.148237" stop-color="#AFAFAF"/>
<stop offset="0.211432" stop-color="#EEEEEE"/>
<stop offset="0.272794" stop-color="#DBDBDB"/>
<stop offset="0.388783" stop-color="#D5D5D5"/>
<stop offset="0.431513" stop-color="#BFBFBF"/>
<stop offset="0.471277" stop-color="#D0D0D0"/>
<stop offset="0.56" stop-color="#CACACA"/>
<stop offset="0.652862" stop-color="#F0F0F0"/>
<stop offset="0.739091" stop-color="#BDBDBD"/>
<stop offset="1" stop-color="#9B9B9B"/>
</linearGradient>
</defs>
</svg>

